<svg width="12" height="12" viewBox="0 0 12 12" fill="none" xmlns="http://www.w3.org/2000/svg">
<path d="M7.50012 9.5C7.50012 10.3284 6.82855 11 6.00012 11C5.1717 11 4.50012 10.3284 4.50012 9.5M6.89838 3.11928C7.11612 2.89432 7.25012 2.58781 7.25012 2.25C7.25012 1.55964 6.69048 1 6.00012 1C5.30977 1 4.75012 1.55964 4.75012 2.25C4.75012 2.58781 4.88413 2.89432 5.10187 3.11928M1.27353 4.16148C1.26636 3.43581 1.6576 2.75816 2.28964 2.40153M10.7267 4.16148C10.7339 3.43581 10.3426 2.75816 9.71061 2.40153M9.00012 5.6C9.00012 4.91044 8.68405 4.24912 8.12145 3.76152C7.55884 3.27393 6.79577 3 6.00012 3C5.20447 3 4.44141 3.27393 3.8788 3.76152C3.3162 4.24912 3.00012 4.91044 3.00012 5.6C3.00012 6.7409 2.71719 7.57529 2.36416 8.17234C1.96179 8.85281 1.76061 9.19305 1.76856 9.27432C1.77765 9.36731 1.79438 9.39664 1.86979 9.45179C1.93571 9.5 2.26688 9.5 2.92922 9.5H9.07103C9.73337 9.5 10.0645 9.5 10.1305 9.45179C10.2059 9.39664 10.2226 9.36731 10.2317 9.27432C10.2396 9.19305 10.0385 8.85281 9.63609 8.17234C9.28306 7.57529 9.00012 6.7409 9.00012 5.6Z" stroke="white" stroke-linecap="round" stroke-linejoin="round"/>
</svg>
