<svg width="250" height="148" viewBox="0 0 250 148" fill="none" xmlns="http://www.w3.org/2000/svg">
<circle cx="184.5" cy="50" r="4" fill="#EB5757"/>
<path d="M197.733 55V44.8182H198.966V49.3523H204.395V44.8182H205.628V55H204.395V50.446H198.966V55H197.733ZM207.937 55V47.3636H209.11V55H207.937ZM208.534 46.0909C208.305 46.0909 208.108 46.013 207.942 45.8572C207.78 45.7015 207.699 45.5142 207.699 45.2955C207.699 45.0767 207.78 44.8894 207.942 44.7337C208.108 44.5779 208.305 44.5 208.534 44.5C208.762 44.5 208.958 44.5779 209.12 44.7337C209.286 44.8894 209.369 45.0767 209.369 45.2955C209.369 45.5142 209.286 45.7015 209.12 45.8572C208.958 46.013 208.762 46.0909 208.534 46.0909ZM214.342 58.0227C213.775 58.0227 213.288 57.9498 212.88 57.804C212.472 57.6615 212.133 57.4725 211.861 57.2372C211.593 57.0052 211.379 56.7566 211.22 56.4915L212.154 55.8352C212.26 55.9744 212.395 56.1335 212.557 56.3125C212.719 56.4948 212.941 56.6522 213.223 56.7848C213.508 56.9207 213.881 56.9886 214.342 56.9886C214.958 56.9886 215.467 56.8395 215.868 56.5412C216.269 56.2429 216.47 55.7756 216.47 55.1392V53.5881H216.37C216.284 53.7273 216.161 53.8996 216.002 54.1051C215.847 54.3073 215.621 54.4879 215.326 54.647C215.035 54.8028 214.64 54.8807 214.143 54.8807C213.526 54.8807 212.973 54.7348 212.482 54.4432C211.995 54.1515 211.609 53.7273 211.324 53.1705C211.042 52.6136 210.901 51.9375 210.901 51.142C210.901 50.3598 211.039 49.6787 211.314 49.0987C211.589 48.5154 211.972 48.0646 212.463 47.7464C212.953 47.425 213.52 47.2642 214.163 47.2642C214.66 47.2642 215.054 47.3471 215.346 47.5128C215.641 47.6752 215.866 47.8608 216.022 48.0696C216.181 48.2751 216.304 48.4441 216.39 48.5767H216.509V47.3636H217.643V55.2188C217.643 55.875 217.494 56.4086 217.195 56.8196C216.901 57.2339 216.503 57.5372 216.002 57.7294C215.505 57.925 214.952 58.0227 214.342 58.0227ZM214.302 53.8267C214.773 53.8267 215.17 53.719 215.495 53.5036C215.82 53.2881 216.067 52.9782 216.236 52.5739C216.405 52.1695 216.49 51.6856 216.49 51.1222C216.49 50.572 216.407 50.0864 216.241 49.6655C216.075 49.2446 215.83 48.9148 215.505 48.6761C215.18 48.4375 214.779 48.3182 214.302 48.3182C213.805 48.3182 213.391 48.4441 213.059 48.696C212.731 48.9479 212.484 49.286 212.318 49.7102C212.156 50.1345 212.075 50.6051 212.075 51.1222C212.075 51.6525 212.158 52.1214 212.323 52.5291C212.492 52.9335 212.741 53.2517 213.069 53.4837C213.401 53.7124 213.811 53.8267 214.302 53.8267ZM220.964 50.4062V55H219.791V44.8182H220.964V48.5568H221.063C221.242 48.1624 221.511 47.8492 221.869 47.6172C222.23 47.3819 222.711 47.2642 223.311 47.2642C223.831 47.2642 224.287 47.3686 224.678 47.5774C225.069 47.7829 225.372 48.0994 225.588 48.527C225.806 48.9512 225.916 49.4915 225.916 50.1477V55H224.742V50.2273C224.742 49.6207 224.585 49.1518 224.27 48.8203C223.959 48.4856 223.526 48.3182 222.972 48.3182C222.588 48.3182 222.243 48.3994 221.938 48.5618C221.637 48.7242 221.398 48.9612 221.222 49.2727C221.05 49.5843 220.964 49.9621 220.964 50.4062Z" fill="#757575"/>
<circle cx="184.5" cy="74" r="4" fill="#F2C94C"/>
<path d="M197.733 68.8182H199.205L202.665 77.2699H202.784L206.244 68.8182H207.716V79H206.562V71.2642H206.463L203.281 79H202.168L198.986 71.2642H198.886V79H197.733V68.8182ZM213.231 79.1591C212.495 79.1591 211.86 78.9967 211.327 78.6719C210.796 78.3438 210.387 77.8864 210.099 77.2997C209.814 76.7098 209.671 76.0237 209.671 75.2415C209.671 74.4593 209.814 73.7699 210.099 73.1733C210.387 72.5734 210.788 72.1061 211.302 71.7713C211.819 71.4332 212.422 71.2642 213.111 71.2642C213.509 71.2642 213.902 71.3305 214.29 71.4631C214.677 71.5956 215.03 71.8111 215.349 72.1094C215.667 72.4044 215.92 72.7955 216.109 73.2827C216.298 73.7699 216.393 74.3698 216.393 75.0824V75.5795H210.506V74.5653H215.199C215.199 74.1345 215.113 73.75 214.941 73.4119C214.772 73.0739 214.53 72.8071 214.215 72.6115C213.903 72.416 213.536 72.3182 213.111 72.3182C212.644 72.3182 212.24 72.4342 211.898 72.6662C211.56 72.8949 211.3 73.1932 211.118 73.5611C210.935 73.929 210.844 74.3234 210.844 74.7443V75.4205C210.844 75.9972 210.944 76.486 211.143 76.8871C211.345 77.2848 211.625 77.5881 211.983 77.7969C212.341 78.0024 212.757 78.1051 213.231 78.1051C213.539 78.1051 213.817 78.062 214.066 77.9759C214.318 77.8864 214.535 77.7538 214.717 77.5781C214.899 77.3991 215.04 77.1771 215.14 76.9119L216.273 77.2301C216.154 77.6146 215.953 77.9527 215.672 78.2443C215.39 78.5327 215.042 78.758 214.628 78.9205C214.213 79.0795 213.748 79.1591 213.231 79.1591ZM221.061 79.1591C220.425 79.1591 219.863 78.9983 219.376 78.6768C218.888 78.352 218.507 77.8946 218.232 77.3047C217.957 76.7114 217.819 76.0104 217.819 75.2017C217.819 74.3996 217.957 73.7036 218.232 73.1136C218.507 72.5237 218.89 72.0679 219.381 71.7464C219.871 71.425 220.438 71.2642 221.081 71.2642C221.578 71.2642 221.971 71.3471 222.259 71.5128C222.551 71.6752 222.773 71.8608 222.925 72.0696C223.081 72.2751 223.202 72.4441 223.288 72.5767H223.388V68.8182H224.561V79H223.427V77.8267H223.288C223.202 77.9659 223.079 78.1416 222.92 78.3537C222.761 78.5625 222.534 78.7498 222.239 78.9155C221.944 79.0779 221.551 79.1591 221.061 79.1591ZM221.22 78.1051C221.691 78.1051 222.088 77.9825 222.413 77.7372C222.738 77.4886 222.985 77.1456 223.154 76.7081C223.323 76.2673 223.407 75.7585 223.407 75.1818C223.407 74.6117 223.325 74.1129 223.159 73.6854C222.993 73.2545 222.748 72.9197 222.423 72.6811C222.098 72.4392 221.697 72.3182 221.22 72.3182C220.723 72.3182 220.309 72.4458 219.977 72.701C219.649 72.9529 219.402 73.2959 219.236 73.7301C219.074 74.161 218.993 74.6449 218.993 75.1818C218.993 75.7254 219.076 76.2192 219.241 76.6634C219.41 77.1042 219.659 77.4555 219.987 77.7173C220.318 77.9759 220.729 78.1051 221.22 78.1051ZM226.873 79V71.3636H228.046V79H226.873ZM227.469 70.0909C227.241 70.0909 227.043 70.013 226.878 69.8572C226.715 69.7015 226.634 69.5142 226.634 69.2955C226.634 69.0767 226.715 68.8894 226.878 68.7337C227.043 68.5779 227.241 68.5 227.469 68.5C227.698 68.5 227.894 68.5779 228.056 68.7337C228.222 68.8894 228.305 69.0767 228.305 69.2955C228.305 69.5142 228.222 69.7015 228.056 69.8572C227.894 70.013 227.698 70.0909 227.469 70.0909ZM235.007 75.8778V71.3636H236.181V79H235.007V77.7074H234.928C234.749 78.0952 234.471 78.425 234.093 78.6967C233.715 78.9652 233.238 79.0994 232.661 79.0994C232.184 79.0994 231.759 78.995 231.388 78.7862C231.017 78.5741 230.725 78.2559 230.513 77.8317C230.301 77.4041 230.195 76.8655 230.195 76.2159V71.3636H231.368V76.1364C231.368 76.6932 231.524 77.1373 231.836 77.4688C232.15 77.8002 232.551 77.9659 233.039 77.9659C233.33 77.9659 233.627 77.8913 233.929 77.7422C234.234 77.593 234.489 77.3643 234.694 77.0561C234.903 76.7479 235.007 76.3551 235.007 75.8778ZM238.33 79V71.3636H239.463V72.5568H239.563C239.722 72.1491 239.979 71.8326 240.333 71.6072C240.688 71.3786 241.114 71.2642 241.611 71.2642C242.115 71.2642 242.534 71.3786 242.869 71.6072C243.207 71.8326 243.47 72.1491 243.659 72.5568H243.739C243.934 72.1624 244.228 71.8492 244.619 71.6172C245.01 71.3819 245.479 71.2642 246.026 71.2642C246.709 71.2642 247.267 71.478 247.701 71.9055C248.135 72.3298 248.352 72.991 248.352 73.8892V79H247.179V73.8892C247.179 73.3258 247.025 72.9231 246.717 72.6811C246.409 72.4392 246.046 72.3182 245.628 72.3182C245.091 72.3182 244.675 72.4806 244.38 72.8054C244.085 73.1269 243.938 73.5346 243.938 74.0284V79H242.744V73.7699C242.744 73.3357 242.604 72.986 242.322 72.7209C242.04 72.4524 241.677 72.3182 241.233 72.3182C240.928 72.3182 240.643 72.3994 240.378 72.5618C240.116 72.7242 239.904 72.9496 239.742 73.2379C239.583 73.523 239.503 73.8527 239.503 74.2273V79H238.33Z" fill="#757575"/>
<circle cx="184.5" cy="98" r="4" fill="#2F80ED"/>
<path d="M197.733 103V92.8182H198.966V101.906H203.699V103H197.733ZM208.551 103.159C207.862 103.159 207.257 102.995 206.737 102.667C206.219 102.339 205.815 101.88 205.523 101.29C205.235 100.7 205.091 100.01 205.091 99.2216C205.091 98.4261 205.235 97.7318 205.523 97.1385C205.815 96.5452 206.219 96.0845 206.737 95.7564C207.257 95.4283 207.862 95.2642 208.551 95.2642C209.241 95.2642 209.844 95.4283 210.361 95.7564C210.881 96.0845 211.286 96.5452 211.574 97.1385C211.866 97.7318 212.011 98.4261 212.011 99.2216C212.011 100.01 211.866 100.7 211.574 101.29C211.286 101.88 210.881 102.339 210.361 102.667C209.844 102.995 209.241 103.159 208.551 103.159ZM208.551 102.105C209.075 102.105 209.506 101.971 209.844 101.702C210.182 101.434 210.432 101.081 210.594 100.643C210.757 100.206 210.838 99.732 210.838 99.2216C210.838 98.7112 210.757 98.2356 210.594 97.7947C210.432 97.3539 210.182 96.9976 209.844 96.7259C209.506 96.4541 209.075 96.3182 208.551 96.3182C208.027 96.3182 207.597 96.4541 207.259 96.7259C206.92 96.9976 206.67 97.3539 206.508 97.7947C206.345 98.2356 206.264 98.7112 206.264 99.2216C206.264 99.732 206.345 100.206 206.508 100.643C206.67 101.081 206.92 101.434 207.259 101.702C207.597 101.971 208.027 102.105 208.551 102.105ZM215.273 103L212.946 95.3636H214.179L215.83 101.21H215.909L217.54 95.3636H218.793L220.403 101.19H220.483L222.134 95.3636H223.366L221.04 103H219.886L218.216 97.1335H218.097L216.426 103H215.273Z" fill="#757575"/>
<path d="M148 74C148 114.869 114.869 148 74 148C33.1309 148 0 114.869 0 74C0 33.1309 33.1309 0 74 0C114.869 0 148 33.1309 148 74ZM37 74C37 94.4345 53.5655 111 74 111C94.4345 111 111 94.4345 111 74C111 53.5655 94.4345 37 74 37C53.5655 37 37 53.5655 37 74Z" fill="#2F80ED"/>
<path d="M103.876 6.29913C121.45 14.0543 135.319 28.3388 142.553 46.1334C149.786 63.9279 149.817 83.8378 142.638 101.655C135.46 119.471 121.635 133.799 104.085 141.608C86.536 149.418 66.6376 150.097 48.5964 143.503L61.2982 108.751C70.3188 112.049 80.268 111.709 89.0427 107.804C97.8174 103.899 104.73 96.7357 108.319 87.8273C111.908 78.9189 111.893 68.9639 108.276 60.0667C104.66 51.1694 97.7249 44.0271 88.9381 40.1496L103.876 6.29913Z" fill="#EB5757"/>
<path d="M51.1327 144.378C36.2703 139.549 23.3182 130.139 14.1327 117.496L44.0664 95.7481C48.6591 102.069 55.1352 106.775 62.5664 109.189L51.1327 144.378Z" fill="#F2C94C"/>
</svg>
